<?xml version="1.0" encoding="UTF-8"?>
<svg width="12px" height="12px" viewBox="0 0 12 12" version="1.1" xmlns="http://www.w3.org/2000/svg" xmlns:xlink="http://www.w3.org/1999/xlink">
    <!-- Generator: Sketch 44.1 (41455) - http://www.bohemiancoding.com/sketch -->
    <title>shape</title>
    <desc>Created with Sketch.</desc>
    <defs></defs>
    <g id="Symbols" stroke="none" stroke-width="1" fill="none" fill-rule="evenodd">
        <g id="Battleground-/-Asset-/-Data-/-Light" transform="translate(-8.000000, -8.000000)" fill="#FFFFFF">
            <path d="M11.840893,10.3999573 L11.840893,10.4000178 C11.7086084,10.4000178 11.5999468,10.2913489 11.5999468,10.16143 L11.5999468,8.24094711 C11.5999468,8.10630045 11.7086036,8.00000084 11.840893,8.00000084 L16.1614049,8.00000084 C16.2960516,8.00000084 16.4023512,8.10865767 16.4023512,8.24094711 L16.4023512,10.1590111 C16.4023512,10.2936577 16.2936944,10.3999573 16.1614049,10.3999573 L11.840893,10.3999573 Z M19.8251865,9.02520172 L19.8251985,9.02523679 C19.9362211,9.13626414 20.0000001,9.28980359 20.0000001,9.44807199 L20.0000001,19.4000176 C20.0000001,19.730717 19.7307165,20.0000127 19.4000049,20.0000127 L8.59999522,20.0000127 C8.26929579,20.0000127 8.0000001,19.7307291 8.0000001,19.4000176 L8.0000001,8.6000081 C8.0000001,8.26930867 8.2692837,8.00001293 8.59999522,8.00001293 L10.1590948,8.00001293 C10.2937415,8.00001293 10.4000411,8.10631134 10.4000411,8.24095921 L10.4000411,11.3614566 C10.4000411,11.4961032 10.5086979,11.6024029 10.6409874,11.6024029 L17.3566905,11.6024029 C17.4913372,11.6024029 17.5976368,11.493746 17.5976368,11.3614566 L17.5976368,8.24095921 C17.5976368,8.10631255 17.7062936,8.00001293 17.8385831,8.00001293 L18.5496056,8.00001293 C18.7102324,8.00001293 18.8614134,8.06142871 18.9747992,8.17481448 L19.8251865,9.02520172 Z M14,17.5999478 C15.3228703,17.5999478 16.4000291,15.1999187 16.4000291,15.1999187 C16.4000291,15.1999187 15.3228703,12.7998896 14,12.7998896 C12.6771297,12.7998896 11.599971,13.8770484 11.599971,15.1999187 C11.599971,16.522789 12.6771055,17.5999478 14,17.5999478 Z M14,14.0000009 C14.6614231,14.0000009 15.2000024,14.5385803 15.2000024,15.2000034 C15.2000024,15.8614264 14.6614231,16.4000058 14,16.4000058 C13.338577,16.4000058 12.7999976,15.8614264 12.7999976,15.2000034 C12.7999976,14.5385803 13.338577,14.0000009 14,14.0000009 Z" id="shape"></path>
        </g>
    </g>
</svg>