<svg width="12" height="12" viewBox="0 0 12 12" xmlns="http://www.w3.org/2000/svg">
  <path
    d="M3.84 2.4a.241.241 0 0 1-.24-.239V.241A.24.24 0 0 1 3.84 0h4.321a.24.24 0 0 1 .241.24V2.16a.24.24 0 0 1-.24.241H3.84zm7.985-1.375a.601.601 0 0 1 .175.423V11.4a.6.6 0 0 1-.6.6H.6a.6.6 0 0 1-.6-.6V.6C0 .27.27 0 .6 0h1.56c.134 0 .24.106.24.241v3.12c0 .135.109.241.241.241h6.716a.24.24 0 0 0 .24-.24V.24A.24.24 0 0 1 9.84 0h.71c.161 0 .312.061.426.175l.85.85zM6 9.6c1.323 0 2.4-2.4 2.4-2.4S7.323 4.8 6 4.8a2.403 2.403 0 0 0-2.4 2.4c0 1.323 1.077 2.4 2.4 2.4zM6 6c.661 0 1.2.539 1.2 1.2 0 .661-.539 1.2-1.2 1.2-.661 0-1.2-.539-1.2-1.2C4.8 6.539 5.339 6 6 6z"
    fill="#FFF" fill-rule="evenodd"/>
</svg>
