<svg width="16" height="14" viewBox="0 0 16 14" xmlns="http://www.w3.org/2000/svg">
  <path
    d="M.494.459h15.012c.272 0 .494.221.494.494v9.413a.494.494 0 0 1-.495.494H10.28c.041.629.227 1.72 1.015 1.797a.98.98 0 0 1 .047.006h.094a.439.439 0 1 1 0 .878h-6.87a.44.44 0 0 1 0-.878h.093a.98.98 0 0 1 .048-.006c.788-.078.974-1.168 1.015-1.797H.494A.494.494 0 0 1 0 10.366V.953C0 .68.221.459.494.459zM2 2.509v5.478c0 .294.224.51.5.51h11c.271 0 .5-.228.5-.51V2.51a.498.498 0 0 0-.5-.51h-11c-.271 0-.5.228-.5.51z"
    fill="#FFF" fill-rule="evenodd"/>
</svg>
