<?xml version="1.0" encoding="UTF-8"?>
<svg width="16px" height="14px" viewBox="0 0 16 14" version="1.1" xmlns="http://www.w3.org/2000/svg" xmlns:xlink="http://www.w3.org/1999/xlink">
    <!-- Generator: Sketch 44.1 (41455) - http://www.bohemiancoding.com/sketch -->
    <title>Combined Shape</title>
    <desc>Created with Sketch.</desc>
    <defs></defs>
    <g id="Symbols" stroke="none" stroke-width="1" fill="none" fill-rule="evenodd">
        <g id="Battleground-/-Asset-/-Device-/-Light" transform="translate(-6.000000, -7.000000)" fill="#FFFFFF">
            <path d="M6.4939747,7.45901346 L21.5060253,7.45901346 C21.7780901,7.45901346 22,7.6802812 22,7.95298816 L21.9993578,17.36617 C21.9993578,17.638877 21.7780901,17.8601447 21.5053831,17.8601447 L16.2786658,17.8601447 C16.3204725,18.4885299 16.505713,19.5793973 17.2936356,19.6572246 C17.3129302,19.6591544 17.3283686,19.6610842 17.3412317,19.6630124 L17.4351379,19.6630124 C17.6776301,19.6630124 17.8744461,19.8591862 17.8744461,20.1016784 C17.8744461,20.3441706 17.6776301,20.5409865 17.4351379,20.5409865 L10.5642181,20.5409865 C10.3217259,20.5409865 10.1249099,20.3441706 10.1249099,20.1016784 C10.1249099,19.8591862 10.3217259,19.6630124 10.5642181,19.6630124 L10.6581243,19.6630124 C10.6709874,19.6610842 10.6864241,19.6591544 10.7057204,19.6572246 C11.493643,19.5793413 11.6795257,18.4885464 11.7206903,17.8601447 L6.4939747,17.8601447 C6.22126773,17.8601447 6,17.638877 6,17.36617 L6,7.95298816 C6,7.6802812 6.22126773,7.45901346 6.4939747,7.45901346 Z M8,9.50979569 L8,14.9870386 C8,15.280673 8.22401312,15.4968343 8.50034732,15.4968343 L19.4996527,15.4968343 C19.7709994,15.4968343 20,15.268591 20,14.9870386 L20,9.50979569 C20,9.2161613 19.7759869,9 19.4996527,9 L8.50034732,9 C8.22900057,9 8,9.22824331 8,9.50979569 Z" id="Combined-Shape"></path>
        </g>
    </g>
</svg>