<?xml version="1.0" encoding="UTF-8"?>
<svg width="16px" height="16px" viewBox="0 0 16 16" version="1.1" xmlns="http://www.w3.org/2000/svg" xmlns:xlink="http://www.w3.org/1999/xlink">
    <!-- Generator: Sketch 44.1 (41455) - http://www.bohemiancoding.com/sketch -->
    <title>shape</title>
    <desc>Created with Sketch.</desc>
    <defs></defs>
    <g id="Symbols" stroke="none" stroke-width="1" fill="none" fill-rule="evenodd">
        <g id="Battleground-/-Asset-/-Network-/-Light" transform="translate(-6.000000, -6.000000)" fill-rule="nonzero" fill="#FFFFFF">
            <path d="M12.0031909,15.6378334 L10.7488563,16.2654147 C10.7496167,16.2880246 10.75,16.3107284 10.75,16.33352 C10.75,17.4362752 9.85275519,18.33352 8.75,18.33352 C7.64724481,18.33352 6.75,17.4362752 6.75,16.33352 C6.75,15.2307648 7.64724481,14.33352 8.75,14.33352 C9.22351963,14.33352 9.65914691,14.4989555 10.0021152,14.7750599 L11.4173428,14.067283 C11.4167688,14.044924 11.41648,14.0224952 11.41648,14 C11.41648,13.6519205 11.4856251,13.3197279 11.610905,13.0164326 L10.1525557,11.7409963 C9.90244993,11.8537198 9.62517244,11.91648 9.33352,11.91648 C8.2307647,11.91648 7.33351986,11.0192352 7.33351986,9.91648 C7.33351986,8.81372479 8.2307647,7.91648 9.33352,7.91648 C10.4362752,7.91648 11.33352,8.81372481 11.33352,9.91648 C11.33352,10.1146858 11.3045342,10.3062525 11.2505791,10.4871636 L12.7083374,11.7629912 C13.0885104,11.5426767 13.5297576,11.41648 14,11.41648 C14.2293621,11.41648 14.4518261,11.4465026 14.6636698,11.5028253 L15.7986199,9.80035805 C15.6093502,9.4949055 15.5,9.13497587 15.5,8.75 C15.5,7.64724481 16.3972448,6.75 17.5,6.75 C18.6027552,6.75 19.5,7.64724481 19.5,8.75 C19.5,9.85275519 18.6027552,10.75 17.5,10.75 C17.3927791,10.75 17.2875011,10.7415177 17.1848016,10.7251891 L16.0493991,12.4283351 C16.3842648,12.8640122 16.58352,13.4091155 16.58352,14 C16.58352,14.1567373 16.5695,14.3102533 16.5426478,14.4593601 L18.0661057,15.3054626 C18.3977951,15.0610548 18.8073404,14.91648 19.25,14.91648 C20.3527552,14.91648 21.25,15.8137248 21.25,16.91648 C21.25,18.0192352 20.3527552,18.91648 19.25,18.91648 C18.1472448,18.91648 17.25,18.0192352 17.25,16.91648 C17.25,16.8644132 17.2520002,16.8128045 17.2559278,16.7617267 L15.7321583,15.9154512 C15.5440071,16.0857515 15.3307279,16.2287796 15.0986146,16.3382419 L15.2112092,17.3508824 C16.0074663,17.6147452 16.58352,18.3664012 16.58352,19.25 C16.58352,20.3527552 15.6862752,21.25 14.58352,21.25 C13.4807648,21.25 12.58352,20.3527552 12.58352,19.25 C12.58352,18.5231007 12.9733733,17.8854957 13.5549616,17.5353036 L13.4424009,16.5229686 C12.8677673,16.3961333 12.3644262,16.0774838 12.0031909,15.6378334 Z M14,13.08352 C13.494605,13.08352 13.08352,13.4947413 13.08352,14 C13.08352,14.505395 13.4947413,14.91648 14,14.91648 C14.505395,14.91648 14.91648,14.5052587 14.91648,14 C14.91648,13.494605 14.5052587,13.08352 14,13.08352 Z" id="shape"></path>
        </g>
    </g>
</svg>