<svg width="16" height="16" viewBox="0 0 16 16" xmlns="http://www.w3.org/2000/svg">
  <path
    d="M6.003 9.638l-1.254.627.001.069c0 1.102-.897 2-2 2s-2-.898-2-2c0-1.103.897-2 2-2 .474 0 .91.165 1.252.441l1.415-.708V8c0-.348.069-.68.194-.984L4.153 5.741a2.002 2.002 0 0 1-2.819-1.825c0-1.102.897-2 2-2A2.002 2.002 0 0 1 5.25 4.487l1.457 1.276a2.568 2.568 0 0 1 1.956-.26L9.799 3.8A2.002 2.002 0 0 1 11.5.75c1.103 0 2 .897 2 2a2.002 2.002 0 0 1-2.315 1.975l-1.136 1.703a2.57 2.57 0 0 1 .494 2.031l1.523.846a1.99 1.99 0 0 1 1.184-.389c1.103 0 2 .898 2 2 0 1.103-.897 2-2 2a2.002 2.002 0 0 1-1.994-2.154l-1.524-.847c-.188.17-.401.314-.633.423l.112 1.013a2.004 2.004 0 0 1 1.373 1.899c0 1.103-.898 2-2 2a2 2 0 1 1-1.029-3.715l-.113-1.012a2.587 2.587 0 0 1-1.439-.885zM8 7.084a.918.918 0 0 0 0 1.832.918.918 0 0 0 0-1.832z"
    fill-rule="nonzero" fill="#FFF"/>
</svg>
